<?xml version="1.0" encoding="UTF-8" standalone="no"?><!DOCTYPE svg PUBLIC "-//W3C//DTD SVG 1.1//EN" "http://www.w3.org/Graphics/SVG/1.1/DTD/svg11.dtd"><svg width="100%" height="100%" viewBox="0 0 2393 522" version="1.1" xmlns="http://www.w3.org/2000/svg" xmlns:xlink="http://www.w3.org/1999/xlink" xml:space="preserve" xmlns:serif="http://www.serif.com/" style="fill-rule:evenodd;clip-rule:evenodd;stroke-linejoin:round;stroke-miterlimit:2;"><g><g><path d="M172.553,0c-79.372,0 -143.811,64.44 -143.811,143.811c-0,79.371 64.439,143.811 143.811,143.811c79.371,-0 143.811,-64.44 143.811,-143.811c-0,-79.371 -64.44,-143.811 -143.811,-143.811Zm-0,39.941c57.327,0 103.869,46.543 103.869,103.87c0,57.327 -46.542,103.87 -103.869,103.87c-57.328,-0 -103.87,-46.543 -103.87,-103.87c-0,-57.327 46.542,-103.87 103.87,-103.87Z" style="fill:#00132a;"/><path d="M123.185,137.908l-54.164,17.364l0,-17.619l-33.028,-18.104l-35.993,18.104l0,287.214l172.553,96.993l172.552,-96.993l0,-287.214l-33.028,-18.104l-35.993,18.104l0,17.619l-54.164,-17.364l-0,-29.61l-47.247,-20.359l-51.488,20.359l0,29.61Z" style="fill:#00a0e4;"/><path d="M146.801,303.634c-11.897,-8.198 -19.704,-21.921 -19.704,-37.453c0,-25.087 20.368,-45.455 45.456,-45.455c25.087,-0 45.455,20.368 45.455,45.455c-0,15.532 -7.807,29.255 -19.704,37.453l-0,72.536c-0,17.225 -11.539,31.209 -25.751,31.209c-14.213,-0 -25.752,-13.984 -25.752,-31.209l0,-72.536Z" style="fill:#00132a;"/></g><g><path d="M547.984,425.806c-27.982,0 -51.895,-5.167 -71.74,-15.5c-19.844,-10.333 -36.904,-25.396 -51.181,-45.188l40.26,-46.281c13.991,19.793 27.911,33.255 41.759,40.386c13.848,7.132 28.767,10.697 44.757,10.697c8.851,0 16.775,-1.31 23.77,-3.929c6.996,-2.62 12.564,-6.258 16.704,-10.915c4.14,-4.658 6.21,-10.042 6.21,-16.155c0,-4.657 -0.999,-8.95 -2.998,-12.88c-1.998,-3.929 -4.854,-7.422 -8.566,-10.478c-3.712,-3.057 -8.137,-5.822 -13.277,-8.296c-5.139,-2.474 -10.85,-4.584 -17.132,-6.331c-6.281,-1.746 -13.134,-3.347 -20.558,-4.803c-15.99,-3.492 -29.981,-8.004 -41.973,-13.534c-11.993,-5.531 -21.986,-12.225 -29.981,-20.084c-7.995,-7.859 -13.92,-16.955 -17.774,-27.288c-3.855,-10.333 -5.782,-21.904 -5.782,-34.711c-0,-18.046 4.996,-33.837 14.99,-47.372c9.994,-13.534 23.271,-24.159 39.832,-31.872c16.561,-7.713 34.835,-11.57 54.822,-11.57c27.125,-0 49.468,4.657 67.028,13.971c17.561,9.315 31.623,22.413 42.188,39.295l-41.117,41.041c-8.851,-12.516 -18.988,-21.976 -30.409,-28.379c-11.421,-6.404 -23.699,-9.606 -36.834,-9.606c-9.137,0 -17.203,1.237 -24.198,3.711c-6.996,2.475 -12.35,6.113 -16.062,10.916c-3.711,4.802 -5.567,10.405 -5.567,16.809c-0,5.239 1.284,9.897 3.854,13.972c2.57,4.075 6.211,7.64 10.922,10.696c4.711,3.057 10.493,5.749 17.346,8.078c6.853,2.328 14.419,4.22 22.7,5.676c15.704,3.201 29.838,7.495 42.401,12.88c12.563,5.384 23.342,11.861 32.337,19.429c8.994,7.567 15.918,16.3 20.772,26.196c4.854,9.896 7.281,20.957 7.281,33.182c0,20.666 -4.854,38.276 -14.562,52.83c-9.708,14.553 -23.128,25.76 -40.26,33.619c-17.132,7.859 -37.119,11.788 -59.962,11.788Z" style="fill:#00132a;fill-rule:nonzero;"/><path d="M768.557,425.806c-24.555,0 -46.041,-5.094 -64.458,-15.281c-18.417,-10.188 -32.694,-24.159 -42.83,-41.915c-10.136,-17.755 -15.205,-37.985 -15.205,-60.688c0,-18.047 2.856,-34.565 8.566,-49.555c5.711,-14.99 13.706,-27.87 23.985,-38.64c10.279,-10.77 22.486,-19.138 36.619,-25.105c14.134,-5.967 29.624,-8.95 46.471,-8.95c15.418,-0 29.624,2.838 42.615,8.514c12.992,5.675 24.271,13.68 33.836,24.013c9.565,10.333 16.918,22.485 22.057,36.457c5.14,13.971 7.567,29.252 7.281,45.844l-0.428,19.21l-182.027,0l-9.85,-38.421l141.766,-0l-7.281,7.859l0,-9.169c-0.571,-8.15 -3.069,-15.281 -7.495,-21.394c-4.426,-6.112 -10.065,-10.988 -16.918,-14.626c-6.853,-3.639 -14.419,-5.458 -22.7,-5.458c-12.849,0 -23.627,2.547 -32.336,7.641c-8.709,5.094 -15.276,12.37 -19.702,21.83c-4.426,9.46 -6.638,21.176 -6.638,35.147c-0,13.681 2.855,25.687 8.566,36.02c5.71,10.333 13.919,18.265 24.627,23.795c10.707,5.531 23.342,8.296 37.904,8.296c9.994,0 19.131,-1.601 27.411,-4.803c8.28,-3.201 17.275,-8.732 26.983,-16.591l28.696,41.478c-7.995,7.277 -16.989,13.535 -26.983,18.774c-9.994,5.239 -20.273,9.169 -30.837,11.789c-10.565,2.619 -21.13,3.929 -31.695,3.929Z" style="fill:#00132a;fill-rule:nonzero;"/><path d="M888.909,521.86l49.683,-118.321l0.856,36.238l-110.929,-249.303l68.956,0l55.679,134.039c1.998,4.657 4.14,10.333 6.424,17.028c2.284,6.694 3.998,13.098 5.14,19.21l-10.279,4.367c1.998,-4.949 4.068,-10.625 6.21,-17.028c2.141,-6.404 4.354,-13.244 6.639,-20.521l47.541,-137.095l69.812,0l-95.082,230.966l-38.975,100.42l-61.675,-0Z" style="fill:#00132a;fill-rule:nonzero;"/><path d="M1196.43,425.806c-9.994,0 -19.702,-1.528 -29.125,-4.584c-9.422,-3.057 -17.988,-7.059 -25.697,-12.007c-7.71,-4.948 -14.134,-10.624 -19.274,-17.028c-5.139,-6.403 -8.423,-13.098 -9.851,-20.084l13.706,-5.676l-2.57,54.14l-57.82,-0l-0,-322.217l61.246,0l0,145.827l-11.992,-4.803c1.713,-6.985 4.997,-13.68 9.851,-20.084c4.854,-6.403 10.993,-12.152 18.417,-17.246c7.424,-5.093 15.561,-9.096 24.413,-12.006c8.851,-2.911 17.845,-4.366 26.982,-4.366c19.988,-0 37.691,5.166 53.109,15.499c15.419,10.333 27.626,24.596 36.62,42.788c8.994,18.192 13.491,38.785 13.491,61.78c0,23.286 -4.426,43.952 -13.277,61.998c-8.852,18.047 -20.915,32.236 -36.191,42.569c-15.276,10.333 -32.622,15.5 -52.038,15.5Zm-14.562,-52.83c11.421,0 21.343,-2.837 29.766,-8.513c8.423,-5.676 15.062,-13.535 19.916,-23.577c4.854,-10.042 7.281,-21.758 7.281,-35.147c0,-13.098 -2.356,-24.669 -7.067,-34.71c-4.711,-10.042 -11.35,-17.901 -19.916,-23.577c-8.566,-5.676 -18.559,-8.514 -29.98,-8.514c-11.136,-0 -20.987,2.838 -29.553,8.514c-8.566,5.676 -15.276,13.535 -20.13,23.577c-4.854,10.041 -7.281,21.612 -7.281,34.71c-0,13.389 2.427,25.105 7.281,35.147c4.854,10.042 11.564,17.901 20.13,23.577c8.566,5.676 18.417,8.513 29.553,8.513Z" style="fill:#00132a;fill-rule:nonzero;"/><path d="M1399.87,425.806c-24.556,0 -46.042,-5.094 -64.459,-15.281c-18.417,-10.188 -32.693,-24.159 -42.83,-41.915c-10.136,-17.755 -15.204,-37.985 -15.204,-60.688c-0,-18.047 2.855,-34.565 8.566,-49.555c5.71,-14.99 13.705,-27.87 23.984,-38.64c10.28,-10.77 22.486,-19.138 36.62,-25.105c14.134,-5.967 29.624,-8.95 46.47,-8.95c15.419,-0 29.624,2.838 42.616,8.514c12.991,5.675 24.27,13.68 33.835,24.013c9.566,10.333 16.918,22.485 22.058,36.457c5.139,13.971 7.566,29.252 7.281,45.844l-0.429,19.21l-182.026,0l-9.851,-38.421l141.767,-0l-7.281,7.859l-0,-9.169c-0.572,-8.15 -3.07,-15.281 -7.496,-21.394c-4.425,-6.112 -10.065,-10.988 -16.917,-14.626c-6.853,-3.639 -14.42,-5.458 -22.7,-5.458c-12.849,0 -23.628,2.547 -32.337,7.641c-8.708,5.094 -15.276,12.37 -19.701,21.83c-4.426,9.46 -6.639,21.176 -6.639,35.147c0,13.681 2.855,25.687 8.566,36.02c5.711,10.333 13.92,18.265 24.627,23.795c10.708,5.531 23.342,8.296 37.904,8.296c9.994,0 19.131,-1.601 27.411,-4.803c8.281,-3.201 17.275,-8.732 26.983,-16.591l28.696,41.478c-7.995,7.277 -16.989,13.535 -26.983,18.774c-9.993,5.239 -20.272,9.169 -30.837,11.789c-10.565,2.619 -21.129,3.929 -31.694,3.929Z" style="fill:#00132a;fill-rule:nonzero;"/><path d="M1492.38,421.44l0,-230.966l58.677,0l2.141,74.224l-10.279,-15.718c3.712,-11.643 9.351,-22.267 16.918,-31.873c7.567,-9.605 16.561,-17.246 26.983,-22.921c10.422,-5.676 21.343,-8.514 32.765,-8.514c5.139,-0 9.922,0.364 14.348,1.091c4.425,0.728 8.209,1.819 11.349,3.275l-16.275,67.674c-3.141,-1.455 -7.21,-2.838 -12.206,-4.148c-4.997,-1.31 -10.065,-1.965 -15.205,-1.965c-6.567,0 -12.777,1.238 -18.631,3.712c-5.853,2.474 -10.993,5.967 -15.419,10.478c-4.425,4.512 -7.852,9.824 -10.279,15.936c-2.427,6.113 -3.64,12.953 -3.64,20.521l-0,119.194l-61.247,-0Z" style="fill:#00132a;fill-rule:nonzero;"/><path d="M1675.69,421.44l-0,-260.218l-83.947,-0l0,-45.408l216.719,0l-0,45.408l-86.516,-0l-0,260.218l-46.256,-0Z" style="fill:#00a0e4;fill-rule:nonzero;"/><path d="M1865,425.806c-23.128,0 -43.615,-5.021 -61.461,-15.063c-17.845,-10.042 -31.836,-23.795 -41.973,-41.259c-10.136,-17.465 -15.204,-37.549 -15.204,-60.252c-0,-18.047 2.855,-34.492 8.566,-49.337c5.71,-14.845 13.634,-27.725 23.77,-38.64c10.136,-10.915 22.272,-19.356 36.405,-25.323c14.134,-5.967 29.481,-8.951 46.042,-8.951c14.562,0 28.125,2.838 40.689,8.514c12.563,5.676 23.485,13.462 32.764,23.359c9.28,9.896 16.418,21.612 21.415,35.147c4.997,13.535 7.353,28.307 7.067,44.316l-0.428,19.21l-183.74,0l-9.851,-35.802l155.472,0l-6.424,7.423l-0,-10.479c-0.857,-9.605 -3.998,-18.192 -9.423,-25.76c-5.425,-7.568 -12.278,-13.535 -20.558,-17.901c-8.28,-4.366 -17.275,-6.549 -26.983,-6.549c-15.418,0 -28.41,2.984 -38.975,8.951c-10.564,5.967 -18.559,14.699 -23.984,26.196c-5.425,11.498 -8.138,25.687 -8.138,42.569c-0,16.009 3.284,29.908 9.851,41.697c6.567,11.788 15.847,20.884 27.839,27.287c11.992,6.404 25.841,9.606 41.545,9.606c11.136,-0 21.486,-1.892 31.052,-5.676c9.565,-3.784 19.915,-10.624 31.051,-20.521l22.272,31.873c-6.853,6.986 -15.205,13.098 -25.056,18.337c-9.851,5.24 -20.273,9.387 -31.266,12.444c-10.993,3.056 -21.771,4.584 -32.336,4.584Z" style="fill:#00a0e4;fill-rule:nonzero;"/><path d="M2085.14,425.806c-20.844,0 -39.475,-5.239 -55.893,-15.718c-16.418,-10.478 -29.41,-24.741 -38.975,-42.787c-9.565,-18.047 -14.348,-38.276 -14.348,-60.689c0,-22.412 4.783,-42.642 14.348,-60.688c9.565,-18.047 22.557,-32.309 38.975,-42.788c16.418,-10.479 35.049,-15.718 55.893,-15.718c19.987,0 38.19,4.148 54.608,12.443c16.418,8.296 28.91,19.575 37.476,33.838l-24.413,30.562c-4.569,-6.695 -10.422,-12.807 -17.56,-18.337c-7.139,-5.531 -14.705,-9.897 -22.7,-13.099c-7.995,-3.201 -15.704,-4.802 -23.128,-4.802c-13.706,-0 -25.912,3.42 -36.62,10.26c-10.707,6.84 -19.202,16.227 -25.483,28.161c-6.282,11.934 -9.423,25.323 -9.423,40.168c0,14.845 3.284,28.161 9.851,39.95c6.567,11.788 15.276,21.175 26.126,28.161c10.85,6.986 22.843,10.478 35.977,10.478c7.71,0 15.205,-1.309 22.486,-3.929c7.281,-2.62 14.348,-6.549 21.201,-11.788c6.852,-5.24 13.277,-11.643 19.273,-19.211l24.413,30.562c-9.137,13.099 -22.2,23.868 -39.189,32.309c-16.989,8.441 -34.621,12.662 -52.895,12.662Z" style="fill:#00a0e4;fill-rule:nonzero;"/><path d="M2197.36,421.44l-0,-323.09l44.114,0l0,141.024l-7.709,5.24c2.855,-10.188 8.423,-19.575 16.704,-28.161c8.28,-8.587 18.131,-15.573 29.552,-20.958c11.422,-5.384 23.128,-8.077 35.121,-8.077c17.132,0 31.408,3.42 42.829,10.26c11.422,6.841 19.988,17.246 25.698,31.218c5.711,13.971 8.566,31.581 8.566,52.829l0,139.715l-44.114,-0l-0,-136.658c-0,-13.099 -1.714,-23.941 -5.14,-32.528c-3.426,-8.586 -8.709,-14.844 -15.847,-18.774c-7.138,-3.929 -15.99,-5.603 -26.554,-5.021c-8.566,0 -16.419,1.383 -23.557,4.148c-7.138,2.765 -13.348,6.622 -18.631,11.57c-5.282,4.948 -9.422,10.697 -12.42,17.246c-2.998,6.549 -4.498,13.608 -4.498,21.176l0,138.841l-44.114,-0Z" style="fill:#00a0e4;fill-rule:nonzero;"/></g></g></svg>