<?xml version="1.0" encoding="UTF-8" standalone="no"?><!DOCTYPE svg PUBLIC "-//W3C//DTD SVG 1.1//EN" "http://www.w3.org/Graphics/SVG/1.1/DTD/svg11.dtd"><svg width="100%" height="100%" viewBox="0 0 2500 450" version="1.1" xmlns="http://www.w3.org/2000/svg" xmlns:xlink="http://www.w3.org/1999/xlink" xml:space="preserve" xmlns:serif="http://www.serif.com/" style="fill-rule:evenodd;clip-rule:evenodd;stroke-linejoin:round;stroke-miterlimit:2;"><g><g><path d="M131.64,347.938c-29.967,0 -55.576,-5.49 -76.828,-16.469c-21.252,-10.979 -39.523,-26.984 -54.812,-48.015l43.116,-49.176c14.983,21.031 29.89,35.335 44.721,42.913c14.83,7.577 30.808,11.366 47.931,11.366c9.48,-0 17.965,-1.392 25.457,-4.176c7.492,-2.783 13.455,-6.649 17.888,-11.597c4.434,-4.949 6.651,-10.671 6.651,-17.165c0,-4.949 -1.07,-9.511 -3.21,-13.686c-2.141,-4.175 -5.199,-7.887 -9.174,-11.134c-3.975,-3.247 -8.715,-6.186 -14.219,-8.814c-5.504,-2.629 -11.62,-4.872 -18.347,-6.727c-6.727,-1.856 -14.066,-3.557 -22.017,-5.103c-17.124,-3.712 -32.107,-8.506 -44.95,-14.382c-12.843,-5.876 -23.545,-12.989 -32.107,-21.34c-8.562,-8.351 -14.907,-18.015 -19.035,-28.995c-4.129,-10.979 -6.193,-23.273 -6.193,-36.881c0,-19.176 5.352,-35.954 16.054,-50.335c10.703,-14.382 24.922,-25.67 42.657,-33.866c17.736,-8.196 37.306,-12.294 58.711,-12.294c29.049,-0 52.977,4.948 71.783,14.845c18.806,9.897 33.865,23.815 45.179,41.753l-44.033,43.608c-9.479,-13.299 -20.334,-23.35 -32.566,-30.155c-12.231,-6.804 -25.38,-10.206 -39.446,-10.206c-9.785,0 -18.423,1.315 -25.915,3.944c-7.492,2.628 -13.225,6.494 -17.201,11.597c-3.975,5.104 -5.962,11.057 -5.962,17.861c-0,5.567 1.376,10.516 4.128,14.846c2.752,4.33 6.651,8.118 11.696,11.366c5.045,3.247 11.238,6.108 18.576,8.582c7.339,2.474 15.443,4.485 24.31,6.031c16.819,3.402 31.955,7.964 45.409,13.686c13.455,5.721 24.998,12.603 34.631,20.644c9.632,8.041 17.047,17.32 22.245,27.835c5.199,10.515 7.798,22.268 7.798,35.258c-0,21.958 -5.198,40.67 -15.595,56.134c-10.397,15.464 -24.769,27.371 -43.116,35.721c-18.347,8.351 -39.752,12.526 -64.215,12.526Z" style="fill:#00132a;fill-rule:nonzero;"/><path d="M367.859,347.938c-26.297,0 -49.308,-5.412 -69.031,-16.237c-19.723,-10.825 -35.012,-25.67 -45.867,-44.536c-10.856,-18.866 -16.283,-40.361 -16.283,-64.485c-0,-19.175 3.057,-36.726 9.173,-52.654c6.116,-15.928 14.678,-29.614 25.686,-41.057c11.008,-11.443 24.081,-20.335 39.217,-26.675c15.136,-6.34 31.725,-9.51 49.766,-9.51c16.513,-0 31.726,3.015 45.639,9.046c13.913,6.031 25.991,14.536 36.235,25.515c10.244,10.98 18.118,23.892 23.622,38.737c5.504,14.846 8.103,31.083 7.798,48.712l-0.459,20.412l-194.938,0l-10.549,-40.825l151.822,0l-7.798,8.351l0,-9.742c-0.611,-8.66 -3.287,-16.237 -8.027,-22.732c-4.739,-6.495 -10.779,-11.676 -18.117,-15.542c-7.339,-3.865 -15.443,-5.798 -24.31,-5.798c-13.761,-0 -25.304,2.706 -34.63,8.118c-9.327,5.412 -16.36,13.144 -21.1,23.196c-4.739,10.052 -7.109,22.5 -7.109,37.345c-0,14.536 3.058,27.294 9.173,38.274c6.116,10.979 14.907,19.407 26.374,25.283c11.467,5.876 24.998,8.814 40.593,8.814c10.703,0 20.488,-1.701 29.356,-5.103c8.867,-3.402 18.5,-9.278 28.896,-17.629l30.732,44.073c-8.562,7.732 -18.194,14.381 -28.897,19.948c-10.702,5.567 -21.711,9.742 -33.025,12.526c-11.314,2.783 -22.628,4.175 -33.942,4.175Z" style="fill:#00132a;fill-rule:nonzero;"/><path d="M496.748,450l53.206,-125.722l0.917,38.506l-118.797,-264.897l73.847,-0l59.628,142.422c2.141,4.949 4.434,10.98 6.88,18.093c2.447,7.113 4.281,13.918 5.504,20.412l-11.008,4.64c2.141,-5.258 4.358,-11.289 6.651,-18.093c2.293,-6.804 4.663,-14.072 7.109,-21.804l50.914,-145.67l74.764,-0l-101.826,245.412l-41.74,106.701l-66.049,0Z" style="fill:#00132a;fill-rule:nonzero;"/><path d="M826.078,347.938c-10.703,0 -21.099,-1.624 -31.19,-4.871c-10.091,-3.247 -19.265,-7.5 -27.521,-12.758c-8.256,-5.257 -15.136,-11.288 -20.64,-18.093c-5.504,-6.804 -9.021,-13.917 -10.55,-21.34l14.678,-6.031l-2.752,57.526l-61.922,0l0,-342.371l65.591,0l0,154.948l-12.843,-5.103c1.835,-7.422 5.351,-14.536 10.55,-21.34c5.198,-6.804 11.772,-12.912 19.723,-18.325c7.95,-5.412 16.665,-9.665 26.144,-12.757c9.48,-3.093 19.112,-4.639 28.897,-4.639c21.405,-0 40.364,5.489 56.876,16.469c16.513,10.979 29.585,26.134 39.217,45.463c9.632,19.33 14.448,41.212 14.448,65.645c0,24.742 -4.739,46.701 -14.219,65.876c-9.479,19.175 -22.398,34.253 -38.758,45.232c-16.359,10.979 -34.936,16.469 -55.729,16.469Zm-15.595,-56.134c12.231,0 22.857,-3.015 31.878,-9.046c9.021,-6.031 16.13,-14.382 21.328,-25.052c5.199,-10.67 7.798,-23.118 7.798,-37.345c-0,-13.918 -2.523,-26.212 -7.568,-36.882c-5.046,-10.67 -12.155,-19.02 -21.329,-25.051c-9.173,-6.031 -19.876,-9.047 -32.107,-9.047c-11.926,0 -22.475,3.016 -31.649,9.047c-9.173,6.031 -16.359,14.381 -21.558,25.051c-5.198,10.67 -7.797,22.964 -7.797,36.882c-0,14.227 2.599,26.675 7.797,37.345c5.199,10.67 12.385,19.021 21.558,25.052c9.174,6.031 19.723,9.046 31.649,9.046Z" style="fill:#00132a;fill-rule:nonzero;"/><path d="M1043.95,347.938c-26.298,0 -49.308,-5.412 -69.031,-16.237c-19.723,-10.825 -35.013,-25.67 -45.868,-44.536c-10.855,-18.866 -16.283,-40.361 -16.283,-64.485c-0,-19.175 3.058,-36.726 9.173,-52.654c6.116,-15.928 14.678,-29.614 25.686,-41.057c11.009,-11.443 24.081,-20.335 39.217,-26.675c15.137,-6.34 31.725,-9.51 49.767,-9.51c16.512,-0 31.725,3.015 45.638,9.046c13.913,6.031 25.992,14.536 36.236,25.515c10.243,10.98 18.117,23.892 23.622,38.737c5.504,14.846 8.103,31.083 7.797,48.712l-0.459,20.412l-194.937,0l-10.55,-40.825l151.822,0l-7.797,8.351l-0,-9.742c-0.612,-8.66 -3.288,-16.237 -8.027,-22.732c-4.74,-6.495 -10.779,-11.676 -18.118,-15.542c-7.339,-3.865 -15.442,-5.798 -24.31,-5.798c-13.76,-0 -25.304,2.706 -34.63,8.118c-9.326,5.412 -16.36,13.144 -21.099,23.196c-4.74,10.052 -7.11,22.5 -7.11,37.345c0,14.536 3.058,27.294 9.174,38.274c6.116,10.979 14.907,19.407 26.374,25.283c11.467,5.876 24.998,8.814 40.593,8.814c10.702,0 20.487,-1.701 29.355,-5.103c8.868,-3.402 18.5,-9.278 28.897,-17.629l30.731,44.073c-8.562,7.732 -18.194,14.381 -28.897,19.948c-10.702,5.567 -21.71,9.742 -33.024,12.526c-11.314,2.783 -22.628,4.175 -33.942,4.175Z" style="fill:#00132a;fill-rule:nonzero;"/><path d="M1143.02,343.299l-0,-245.412l62.839,-0l2.293,78.866l-11.008,-16.701c3.975,-12.372 10.014,-23.66 18.118,-33.866c8.103,-10.207 17.735,-18.325 28.896,-24.356c11.161,-6.031 22.858,-9.046 35.089,-9.046c5.504,-0 10.626,0.386 15.366,1.159c4.739,0.773 8.791,1.933 12.155,3.48l-17.43,71.907c-3.364,-1.546 -7.721,-3.016 -13.072,-4.407c-5.352,-1.392 -10.779,-2.088 -16.283,-2.088c-7.033,0 -13.684,1.314 -19.953,3.943c-6.268,2.629 -11.773,6.341 -16.512,11.134c-4.74,4.794 -8.409,10.439 -11.008,16.933c-2.6,6.495 -3.899,13.763 -3.899,21.804l-0,126.65l-65.591,-0Z" style="fill:#00132a;fill-rule:nonzero;"/><path d="M1339.34,343.299l-0,-276.495l-89.901,0l0,-48.247l232.091,-0l-0,48.247l-92.653,0l-0,276.495l-49.537,-0Z" style="fill:#00a0e4;fill-rule:nonzero;"/><path d="M1542.07,347.938c-24.768,0 -46.708,-5.335 -65.82,-16.005c-19.112,-10.67 -34.095,-25.284 -44.95,-43.84c-10.856,-18.557 -16.283,-39.897 -16.283,-64.021c-0,-19.175 3.057,-36.649 9.173,-52.423c6.116,-15.773 14.601,-29.458 25.457,-41.056c10.855,-11.598 23.851,-20.567 38.987,-26.907c15.137,-6.341 31.573,-9.511 49.308,-9.511c15.595,0 30.12,3.016 43.574,9.047c13.455,6.031 25.151,14.304 35.089,24.819c9.938,10.516 17.583,22.964 22.934,37.346c5.351,14.381 7.874,30.077 7.568,47.087l-0.458,20.413l-196.773,-0l-10.55,-38.042l166.5,0l-6.88,7.887l0,-11.134c-0.917,-10.206 -4.281,-19.33 -10.091,-27.371c-5.81,-8.041 -13.148,-14.382 -22.016,-19.021c-8.868,-4.639 -18.5,-6.959 -28.897,-6.959c-16.512,0 -30.426,3.171 -41.74,9.511c-11.314,6.34 -19.876,15.618 -25.685,27.835c-5.81,12.216 -8.715,27.294 -8.715,45.232c-0,17.01 3.516,31.778 10.549,44.304c7.033,12.526 16.971,22.191 29.814,28.995c12.843,6.804 27.674,10.206 44.492,10.206c11.926,-0 23.01,-2.01 33.254,-6.031c10.244,-4.021 21.329,-11.289 33.254,-21.804l23.851,33.866c-7.338,7.423 -16.283,13.917 -26.832,19.484c-10.55,5.567 -21.711,9.975 -33.484,13.222c-11.772,3.247 -23.316,4.871 -34.63,4.871Z" style="fill:#00a0e4;fill-rule:nonzero;"/><path d="M1777.83,347.938c-22.322,0 -42.274,-5.567 -59.857,-16.701c-17.583,-11.134 -31.496,-26.289 -41.74,-45.464c-10.244,-19.175 -15.365,-40.67 -15.365,-64.484c-0,-23.815 5.121,-45.31 15.365,-64.485c10.244,-19.175 24.157,-34.33 41.74,-45.464c17.583,-11.134 37.535,-16.701 59.857,-16.701c21.405,0 40.899,4.407 58.482,13.222c17.582,8.814 30.96,20.799 40.134,35.953l-26.145,32.475c-4.892,-7.114 -11.161,-13.609 -18.805,-19.485c-7.645,-5.876 -15.748,-10.515 -24.31,-13.917c-8.562,-3.402 -16.818,-5.103 -24.769,-5.103c-14.678,-0 -27.75,3.634 -39.217,10.902c-11.467,7.268 -20.564,17.242 -27.291,29.922c-6.727,12.681 -10.091,26.907 -10.091,42.681c-0,15.773 3.517,29.922 10.55,42.448c7.033,12.526 16.359,22.5 27.979,29.923c11.62,7.422 24.463,11.134 38.529,11.134c8.256,-0 16.283,-1.392 24.08,-4.175c7.798,-2.784 15.366,-6.959 22.705,-12.526c7.339,-5.567 14.219,-12.371 20.64,-20.413l26.145,32.475c-9.785,13.917 -23.775,25.36 -41.969,34.33c-18.194,8.969 -37.076,13.453 -56.647,13.453Z" style="fill:#00a0e4;fill-rule:nonzero;"/><path d="M1898.01,343.299l-0,-343.299l47.244,0l-0,149.845l-8.257,5.567c3.058,-10.824 9.021,-20.799 17.889,-29.922c8.868,-9.124 19.417,-16.547 31.649,-22.268c12.231,-5.722 24.768,-8.583 37.611,-8.583c18.347,0 33.636,3.634 45.868,10.902c12.231,7.268 21.405,18.325 27.52,33.17c6.116,14.846 9.174,33.557 9.174,56.134l-0,148.454l-47.244,-0l0,-145.206c0,-13.918 -1.835,-25.438 -5.504,-34.562c-3.669,-9.124 -9.326,-15.773 -16.971,-19.949c-7.645,-4.175 -17.124,-5.953 -28.438,-5.335c-9.174,0 -17.583,1.469 -25.227,4.408c-7.645,2.938 -14.296,7.036 -19.953,12.293c-5.657,5.258 -10.091,11.366 -13.301,18.325c-3.211,6.959 -4.816,14.459 -4.816,22.5l-0,147.526l-47.244,-0Z" style="fill:#00a0e4;fill-rule:nonzero;"/></g><path d="M2328.99,0c0,0 202.457,134.901 166.8,134.901c-286.454,-0 -134.111,315.099 -134.111,315.099c-0,-0 -210.081,-118.358 -210.081,-315.099c0,-10.712 177.392,-134.901 177.392,-134.901Z" style="fill:#00a0e4;"/></g><rect x="2046.82" y="324.679" width="780.878" height="780.878" style="fill:none;"/></svg>